<svg width="118" height="31" viewBox="0 0 118 31" fill="none" xmlns="http://www.w3.org/2000/svg">
<path d="M20.5057 5.99518C20.5057 9.05748 18.0037 11.4338 14.7726 11.4338C11.5414 11.4338 9.03613 9.05748 9.03613 5.99518C9.03613 2.93287 11.5414 0.586426 14.7726 0.586426C18.0037 0.586426 20.5057 2.92955 20.5057 5.99518ZM10.8925 5.99518C10.9221 6.99307 11.343 7.94027 12.0659 8.63574C12.7887 9.33122 13.7566 9.72023 14.7642 9.72023C15.7718 9.72023 16.7397 9.33122 17.4625 8.63574C18.1854 7.94027 18.6063 6.99307 18.6359 5.99518C18.6063 4.99728 18.1854 4.05009 17.4625 3.35461C16.7397 2.65913 15.7718 2.27012 14.7642 2.27012C13.7566 2.27012 12.7887 2.65913 12.0659 3.35461C11.343 4.05009 10.9221 4.99728 10.8925 5.99518Z" fill="white"/>
<path d="M31.3401 11.3542L25.5802 3.66529V11.3542H23.7539V0.632812H25.5468L31.3401 8.33829V0.632812H33.1329V11.3542H31.3401Z" fill="white"/>
<path d="M38.9933 2.25676V5.15336H44.2782V6.774H38.9933V9.73025H45.0843V11.3542H37.167V0.632812H44.897V2.25676H38.9933Z" fill="white"/>
<path d="M61.7313 1.66037L60.9754 3.25118C60.0235 2.65244 58.9306 2.30977 57.8044 2.25692C56.7374 2.25692 56.0417 2.65462 56.0417 3.3738C56.0417 5.72024 61.8885 4.46417 61.8718 8.32188C61.8718 10.2375 60.1692 11.4173 57.791 11.4173C56.1564 11.4078 54.5824 10.8027 53.3691 9.71715L54.1585 8.15286C55.1487 9.09534 56.4497 9.65098 57.8212 9.71715C59.0889 9.71715 59.8448 9.24322 59.8448 8.41468C59.8448 6.02515 54.0013 7.35745 54.0013 3.54283C54.0013 1.70677 55.5935 0.560059 57.9449 0.560059C59.2872 0.560828 60.6012 0.942666 61.7313 1.66037Z" fill="white"/>
<path d="M72.7967 11.3542V6.91319H67.0636V11.3542H65.2373V0.632812H67.0636V5.28924H72.7967V0.632812H74.623V11.3542H72.7967Z" fill="white"/>
<path d="M89.3299 5.99518C89.3299 9.05748 86.8246 11.4338 83.5968 11.4338C80.369 11.4338 77.8604 9.05748 77.8604 5.99518C77.8604 2.93287 80.3657 0.586426 83.5968 0.586426C86.8279 0.586426 89.3299 2.92955 89.3299 5.99518ZM79.7134 5.99518C79.7222 7.01221 80.1371 7.98442 80.8673 8.69924C81.5975 9.41406 82.5837 9.81334 83.6102 9.8098C84.3657 9.79805 85.1009 9.56548 85.7236 9.14129C86.3463 8.71709 86.8286 8.12015 87.1102 7.42535C87.3918 6.73056 87.46 5.96885 87.3063 5.23578C87.1526 4.50271 86.7839 3.83094 86.2464 3.30473C85.7088 2.77852 85.0264 2.4213 84.2847 2.2779C83.5431 2.13451 82.7752 2.2113 82.0774 2.49867C81.3797 2.78603 80.7831 3.27116 80.3625 3.89319C79.9419 4.51523 79.7161 5.24647 79.7134 5.99518Z" fill="white"/>
<path d="M96.1604 2.25676V11.3542H94.334V2.25676H90.9189V0.632812H99.5922V2.25676H96.1604Z" fill="white"/>
<path d="M0.23291 13.8433V15.7821L53.259 16.6139L58.2161 13.8433H0.23291Z" fill="white"/>
<path d="M117.233 15.6428L104.836 0.729004L110.289 13.8432H61.5606L56.6035 16.6139L110.302 17.406L104.836 30.5567L117.233 15.6428Z" fill="#EA4335"/>
</svg>
