<svg width="118" height="30" viewBox="0 0 118 30" fill="none" xmlns="http://www.w3.org/2000/svg">
<path d="M21.2015 5.43853C21.2015 8.50084 18.6995 10.8771 15.4684 10.8771C12.2372 10.8771 9.73193 8.50084 9.73193 5.43853C9.73193 2.37623 12.2372 0.0297852 15.4684 0.0297852C18.6995 0.0297852 21.2015 2.37291 21.2015 5.43853ZM11.5883 5.43853C11.6179 6.43643 12.0388 7.38363 12.7617 8.0791C13.4845 8.77458 14.4524 9.16359 15.46 9.16359C16.4676 9.16359 17.4355 8.77458 18.1583 8.0791C18.8812 7.38363 19.3021 6.43643 19.3317 5.43853C19.3021 4.44064 18.8812 3.49344 18.1583 2.79797C17.4355 2.10249 16.4676 1.71348 15.46 1.71348C14.4524 1.71348 13.4845 2.10249 12.7617 2.79797C12.0388 3.49344 11.6179 4.44064 11.5883 5.43853Z" fill="#585858"/>
<path d="M32.0354 10.7976L26.2755 3.10865V10.7976H24.4492V0.0761719H26.2421L32.0354 7.78165V0.0761719H33.8282V10.7976H32.0354Z" fill="#585858"/>
<path d="M39.6886 1.70012V4.59672H44.9735V6.21736H39.6886V9.17361H45.7796V10.7976H37.8623V0.0761719H45.5923V1.70012H39.6886Z" fill="#585858"/>
<path d="M62.4266 1.10373L61.6707 2.69454C60.7188 2.0958 59.6259 1.75312 58.4997 1.70028C57.4327 1.70028 56.737 2.09798 56.737 2.81716C56.737 5.1636 62.5838 3.90753 62.5671 7.76524C62.5671 9.68084 60.8646 10.8607 58.4864 10.8607C56.8517 10.8512 55.2777 10.246 54.0645 9.16051L54.8538 7.59622C55.8441 8.5387 57.145 9.09434 58.5165 9.16051C59.7842 9.16051 60.5401 8.68658 60.5401 7.85804C60.5401 5.46851 54.6966 6.80081 54.6966 2.98618C54.6966 1.15013 56.2888 0.00341797 58.6402 0.00341797C59.9825 0.00418775 61.2965 0.386026 62.4266 1.10373Z" fill="#585858"/>
<path d="M73.4915 10.7976V6.35655H67.7584V10.7976H65.9321V0.0761719H67.7584V4.7326H73.4915V0.0761719H75.3178V10.7976H73.4915Z" fill="#585858"/>
<path d="M90.0252 5.43853C90.0252 8.50084 87.5199 10.8771 84.2921 10.8771C81.0643 10.8771 78.5557 8.50084 78.5557 5.43853C78.5557 2.37623 81.061 0.0297852 84.2921 0.0297852C87.5232 0.0297852 90.0252 2.37291 90.0252 5.43853ZM80.4087 5.43853C80.4176 6.45557 80.8324 7.42778 81.5626 8.1426C82.2929 8.85742 83.279 9.2567 84.3055 9.25316C85.061 9.24141 85.7963 9.00884 86.4189 8.58465C87.0416 8.16045 87.524 7.56351 87.8055 6.86871C88.0871 6.17392 88.1553 5.41221 88.0016 4.67914C87.8479 3.94607 87.4792 3.2743 86.9417 2.74809C86.4041 2.22188 85.7217 1.86466 84.9801 1.72126C84.2384 1.57786 83.4705 1.65466 82.7728 1.94203C82.075 2.22939 81.4784 2.71452 81.0578 3.33655C80.6373 3.95859 80.4114 4.68983 80.4087 5.43853Z" fill="#585858"/>
<path d="M96.8557 1.70012V10.7976H95.0294V1.70012H91.6143V0.0761719H100.287V1.70012H96.8557Z" fill="#585858"/>
<path d="M0.928223 13.2866V15.2254L53.9543 16.0573L58.9114 13.2866H0.928223Z" fill="#585858"/>
<path d="M117.928 15.0862L105.532 0.172363L110.984 13.2866H62.2564L57.2993 16.0573L110.998 16.8493L105.532 30L117.928 15.0862Z" fill="#EA4335"/>
<path d="M11.9965 20.147C12.8528 20.147 13.3344 20.5646 13.3344 21.297C13.3344 22.0294 12.8427 22.5034 11.9965 22.5034H11.2138V23.5308H10.6284V20.147H11.9965ZM11.2138 21.993H11.9664C12.4915 21.993 12.7892 21.7709 12.7892 21.3301C12.7892 20.8894 12.4915 20.6673 11.9664 20.6673H11.2138V21.993Z" fill="#585858"/>
<path d="M16.5587 22.7586L16.2242 23.5208H15.6455L17.1507 20.147H17.7394L19.2145 23.5308H18.599L18.2645 22.7685L16.5587 22.7586ZM17.4149 20.7535L16.7727 22.2515H18.0572L17.4149 20.7535Z" fill="#585858"/>
<path d="M23.5728 22.4967C23.5205 22.5001 23.468 22.5001 23.4156 22.4967H22.6095V23.5308H22.0342V20.147H23.4156C24.2853 20.147 24.787 20.5646 24.787 21.297C24.8043 21.5304 24.7449 21.763 24.6177 21.9601C24.4905 22.1573 24.3023 22.3083 24.0812 22.3907L24.8472 23.5308H24.1782L23.5728 22.4967ZM23.4156 21.993C23.9408 21.993 24.2418 21.7709 24.2418 21.3301C24.2418 20.8894 23.9408 20.6673 23.4156 20.6673H22.6095V21.993H23.4156Z" fill="#585858"/>
<path d="M29.0553 22.0294L28.4767 22.6624V23.5308H27.9014V20.147H28.4767V21.8902L30.0989 20.147H30.7679L29.4601 21.5886L30.8649 23.5308H30.1725L29.0553 22.0294Z" fill="#585858"/>
<path d="M33.708 23.5308V20.147H34.28V23.5308H33.708Z" fill="#585858"/>
<path d="M39.9327 23.5308L38.1164 21.1114V23.5308H37.5444V20.147H38.1064L39.9327 22.5696V20.147H40.498V23.5308H39.9327Z" fill="#585858"/>
<path d="M46.6225 21.8736V23.1197C46.233 23.3994 45.7655 23.5522 45.2846 23.5572C45.0493 23.569 44.8141 23.533 44.5934 23.4513C44.3727 23.3697 44.1712 23.2442 44.0014 23.0824C43.8315 22.9207 43.6968 22.7263 43.6057 22.5111C43.5145 22.2958 43.4688 22.0644 43.4713 21.831C43.4738 21.5976 43.5245 21.3672 43.6203 21.154C43.7161 20.9407 43.8549 20.7492 44.0282 20.5911C44.2015 20.433 44.4057 20.3118 44.6281 20.2348C44.8504 20.1578 45.0864 20.1268 45.3213 20.1436C45.7996 20.1461 46.2621 20.3137 46.6292 20.6175L46.2947 21.0351C46.0266 20.7923 45.6779 20.6555 45.3147 20.6507C45.1505 20.6421 44.9863 20.6668 44.8321 20.7231C44.6779 20.7794 44.5369 20.8663 44.4176 20.9784C44.2984 21.0905 44.2034 21.2255 44.1386 21.3751C44.0737 21.5247 44.0402 21.6859 44.0402 21.8487C44.0402 22.0116 44.0737 22.1728 44.1386 22.3224C44.2034 22.472 44.2984 22.607 44.4176 22.7191C44.5369 22.8312 44.6779 22.918 44.8321 22.9744C44.9863 23.0307 45.1505 23.0554 45.3147 23.0468C45.5916 23.0392 45.8616 22.9591 46.0974 22.8148V21.8736H46.6225Z" fill="#585858"/>
<path d="M55.8643 20.4686L55.6268 20.969C55.3257 20.7797 54.9796 20.6722 54.6233 20.6575C54.2888 20.6575 54.0681 20.7834 54.0681 21.0088C54.0681 21.7446 55.9078 21.3402 55.9011 22.5665C55.9011 23.1663 55.3659 23.5375 54.6166 23.5375C54.1035 23.5348 53.6093 23.3448 53.2285 23.0039L53.476 22.5134C53.7871 22.8095 54.1959 22.9837 54.6267 23.0039C55.028 23.0039 55.2655 22.8548 55.2655 22.593C55.2655 21.844 53.4259 22.2616 53.4259 21.0618C53.4259 20.4852 53.9276 20.1206 54.6668 20.1206C55.0913 20.1212 55.5067 20.2419 55.8643 20.4686Z" fill="#585858"/>
<path d="M62.2764 21.8342C62.2937 22.1912 62.2028 22.5451 62.0154 22.8505C61.8279 23.1558 61.5524 23.3985 61.2245 23.5474C60.8966 23.6962 60.5312 23.7444 60.1754 23.6856C59.8195 23.6269 59.4896 23.4639 59.2281 23.2178C58.9666 22.9716 58.7855 22.6535 58.7081 22.3044C58.6307 21.9553 58.6605 21.5913 58.7938 21.2592C58.9271 20.927 59.1576 20.6421 59.4558 20.4409C59.754 20.2398 60.1061 20.1317 60.4668 20.1307C60.6993 20.1218 60.9312 20.1591 61.1488 20.2405C61.3665 20.3218 61.5655 20.4455 61.7342 20.6043C61.9028 20.7631 62.0377 20.9537 62.1308 21.1649C62.2239 21.3761 62.2734 21.6037 62.2764 21.8342ZM59.266 21.8342C59.2694 22.1496 59.3967 22.4513 59.6209 22.6753C59.8451 22.8992 60.1485 23.0279 60.4668 23.0339C60.7046 23.03 60.9359 22.9566 61.1317 22.8229C61.3276 22.6892 61.4792 22.5012 61.5677 22.2825C61.6561 22.0637 61.6773 21.824 61.6288 21.5933C61.5802 21.3627 61.464 21.1513 61.2947 20.9859C61.1254 20.8204 60.9105 20.7081 60.6771 20.6632C60.4436 20.6182 60.202 20.6426 59.9824 20.7332C59.7629 20.8238 59.5753 20.9766 59.443 21.1725C59.3108 21.3683 59.2399 21.5985 59.2392 21.8342H59.266Z" fill="#585858"/>
<path d="M67.3371 23.0038V23.5308H65.29V20.147H65.862V23.0038H67.3371Z" fill="#585858"/>
<path d="M73.0202 22.1223C73.0202 23.0039 72.4583 23.5441 71.5418 23.5441C70.6253 23.5441 70.0566 23.0039 70.0566 22.1223V20.1338H70.632V22.1223C70.6214 22.2441 70.6377 22.3666 70.6797 22.4815C70.7218 22.5964 70.7886 22.7008 70.8755 22.7876C70.9624 22.8743 71.0673 22.9412 71.1829 22.9837C71.2986 23.0262 71.4221 23.0433 71.5451 23.0337C71.6674 23.043 71.7903 23.0257 71.9051 22.9829C72.0199 22.9401 72.1238 22.8729 72.2096 22.786C72.2953 22.6991 72.3609 22.5947 72.4015 22.48C72.4422 22.3653 72.457 22.2432 72.4449 22.1223V20.1338H73.0202V22.1223Z" fill="#585858"/>
<path d="M77.4688 20.6574V23.5308H76.8969V20.6574H75.8198V20.147H78.5492V20.6574H77.4688Z" fill="#585858"/>
<path d="M81.3857 23.5308V20.147H81.961V23.5308H81.3857Z" fill="#585858"/>
<path d="M88.5635 21.8339C88.5809 22.191 88.4899 22.5452 88.3023 22.8506C88.1147 23.156 87.839 23.3987 87.5109 23.5475C87.1827 23.6963 86.8171 23.7442 86.4612 23.6852C86.1053 23.6262 85.7754 23.4629 85.514 23.2164C85.2527 22.9699 85.0718 22.6514 84.9948 22.3021C84.9177 21.9528 84.9481 21.5887 85.0818 21.2566C85.2156 20.9246 85.4467 20.6398 85.7453 20.4391C86.044 20.2383 86.3964 20.1308 86.7573 20.1304C86.9893 20.1225 87.2207 20.1605 87.4378 20.2422C87.6548 20.3239 87.8533 20.4477 88.0215 20.6063C88.1897 20.7649 88.3242 20.9552 88.4173 21.166C88.5104 21.3768 88.5601 21.6039 88.5635 21.8339ZM85.5531 21.8339C85.5558 22.1542 85.6865 22.4603 85.9166 22.6852C86.1467 22.9101 86.4575 23.0354 86.7807 23.0337C87.0185 23.0297 87.2498 22.9563 87.4456 22.8227C87.6415 22.689 87.7931 22.501 87.8815 22.2822C87.97 22.0635 87.9912 21.8238 87.9427 21.5931C87.8941 21.3624 87.7779 21.1511 87.6086 20.9856C87.4393 20.8201 87.2244 20.7079 86.9909 20.6629C86.7575 20.618 86.5158 20.6424 86.2963 20.733C86.0768 20.8236 85.8891 20.9764 85.7569 21.1722C85.6247 21.3681 85.5538 21.5983 85.5531 21.8339Z" fill="#585858"/>
<path d="M93.9691 23.5308L92.1562 21.1114V23.5308H91.5742V20.147H92.1395L93.9625 22.5696V20.147H94.5277V23.5308H93.9691Z" fill="#585858"/>
<path d="M100.127 20.4686L99.8861 20.969C99.5855 20.7787 99.2391 20.6711 98.8826 20.6575C98.5481 20.6575 98.3307 20.7834 98.3307 21.0088C98.3307 21.7446 100.167 21.3402 100.164 22.5665C100.164 23.1663 99.6285 23.5375 98.8793 23.5375C98.3651 23.535 97.8698 23.3451 97.4878 23.0039L97.7353 22.5134C98.0481 22.8089 98.4577 22.983 98.8893 23.0039C99.2873 23.0039 99.5248 22.8548 99.5248 22.593C99.5248 21.844 97.6885 22.2616 97.6885 21.0618C97.6885 20.4852 98.1869 20.1206 98.9294 20.1206C99.3538 20.1217 99.7691 20.2424 100.127 20.4686Z" fill="#585858"/>
</svg>
